<svg width="128px" height="130px" viewBox="0 0 128 130" version="1.1" xmlns="http://www.w3.org/2000/svg" xmlns:xlink="http://www.w3.org/1999/xlink"><g fill="none" fill-rule="evenodd"><path stroke="#ff3b30" stroke-width="2" d="m43,43h22v42H43"/><path d="m89,71.85V94H43m0-60h46v22.44" stroke="#ff3b30" stroke-width="2"/><path stroke="#ff3b30" stroke-width="2" d="m65,59,5,10H60z"/><path stroke="#ff3b30" stroke-width="2" d="m59,57.5h12"/><path stroke="#ff3b30" stroke-width="2" d="m80,56.5h16"/><path stroke="#ff3b30" stroke-width="2" d="m83,61.5h12"/><path stroke="#ff3b30" stroke-width="2" d="m83,66.5h12"/><path stroke="#ff3b30" stroke-width="2" d="m80,71.5h16"/><path stroke="#ff3b30" stroke-width="2" d="m42.78,32v18L33.3,60.07"/><path stroke="#ff3b30" stroke-width="2" transform="matrix(1,0,0-1,0,164.07)" d="m42.78,68v18L33.3,96.07"/><path stroke="#ff3b30" stroke-width="3" d="m33.8,54v20"/><circle fill="#ff3b30" cx="43" cy="43.5" r="2.5"/><circle fill="#ff3b30" cx="39" cy="74" r="2"/><circle fill="#ff3b30" cx="43" cy="85.5" r="2.5"/></g></svg>
